<?xml version="1.0" standalone="no"?>
<!DOCTYPE svg PUBLIC "-//W3C//DTD SVG 20010904//EN"
 "http://www.w3.org/TR/2001/REC-SVG-20010904/DTD/svg10.dtd">
<svg version="1.0" xmlns="http://www.w3.org/2000/svg"
 width="1879.000000pt" height="517.000000pt" viewBox="0 0 1879.000000 517.000000"
 preserveAspectRatio="xMidYMid meet">

<g transform="translate(0.000000,517.000000) scale(0.100000,-0.100000)"
fill="#000000" stroke="none">
<path d="M3516 5093 c-3 -32 -71 -836 -151 -1788 -80 -952 -148 -1749 -151
-1773 l-5 -42 -875 0 c-481 0 -874 3 -874 8 0 4 27 327 60 717 33 391 60 716
60 723 0 9 -139 12 -659 12 l-660 0 -6 -52 c-3 -29 -57 -672 -120 -1428 -63
-756 -116 -1392 -119 -1412 l-4 -38 2198 0 2198 0 6 58 c9 76 426 5031 426
5054 0 17 -30 18 -659 18 l-658 0 -7 -57z"/>
<path d="M5146 5108 c-8 -58 -426 -5029 -426 -5062 l0 -26 660 0 c521 0 660 3
660 13 0 27 301 3584 306 3615 l5 32 104 0 c85 0 105 -3 105 -14 0 -19 -298
-3559 -304 -3608 l-4 -38 1428 0 1429 0 5 33 c7 42 426 5033 426 5070 l0 27
-660 0 c-521 0 -660 -3 -660 -12 1 -27 -301 -3604 -306 -3626 -4 -21 -9 -22
-109 -22 -58 0 -105 4 -105 9 0 17 300 3567 304 3609 l6 42 -1430 0 -1429 0
-5 -42z"/>
<path d="M9850 5146 c0 -3 -97 -1151 -215 -2553 -118 -1401 -215 -2554 -215
-2560 0 -10 138 -13 659 -13 l659 0 6 58 c10 87 146 1724 146 1749 l0 23 1540
0 1540 0 1 23 c0 12 62 751 138 1642 76 891 136 1623 134 1628 -4 7 -4393 10
-4393 3z m2950 -1488 c0 -13 -7 -88 -15 -168 -8 -80 -15 -151 -15 -157 0 -10
-182 -13 -875 -13 l-875 0 0 28 c0 15 7 92 15 172 8 80 15 148 15 153 0 4 394
7 875 7 l875 0 0 -22z"/>
<path d="M14550 5133 c0 -23 -417 -4980 -426 -5055 l-6 -58 2201 0 c2200 0
2201 0 2201 20 0 11 54 663 120 1448 66 786 120 1436 120 1445 0 16 -48 17
-660 17 -363 0 -660 -1 -660 -3 0 -1 -27 -324 -60 -717 -33 -393 -60 -721 -60
-727 0 -10 -182 -13 -875 -13 l-875 0 0 26 c0 14 68 824 150 1799 83 975 150
1787 150 1804 l0 31 -660 0 c-622 0 -660 -1 -660 -17z"/>
</g>
</svg>
